<svg xmlns="http://www.w3.org/2000/svg" viewBox="0 0 1200 900" role="img"><defs><linearGradient id="bg" x2="1" y2="1"><stop stop-color="#071522"/><stop offset="1" stop-color="#1b5d88"/></linearGradient><linearGradient id="scan" x2="1"><stop stop-color="#6ee7ff"/><stop offset=".5" stop-color="#fff"/><stop offset="1" stop-color="#d7b866"/></linearGradient><filter id="g"><feGaussianBlur stdDeviation="18"/></filter></defs><rect width="1200" height="900" fill="url(#bg)"/><ellipse cx="850" cy="300" rx="300" ry="220" fill="#4dd5ff" opacity=".18" filter="url(#g)"/><g transform="translate(560 115)"><path d="M190 0C95 0 25 70 25 166c0 108 58 166 89 225 20 38 25 110 75 110 48 0 59-71 84-112 33-54 80-109 80-223C353 70 284 0 190 0Z" fill="#f8fdff" fill-opacity=".94"/><path d="M87 149c33-34 69-48 103-48s70 14 103 48M106 205c55 38 110 38 165 0" fill="none" stroke="#8bcfe5" stroke-width="11" stroke-linecap="round"/></g><g stroke="url(#scan)" fill="none" opacity=".85"><path d="M100 640C260 490 410 490 560 640s310 150 520-40" stroke-width="4"/><path d="M100 690C260 540 410 540 560 690s310 150 520-40"/><path d="M100 740C260 590 410 590 560 740s310 150 520-40" opacity=".5"/></g><text x="90" y="110" fill="#d7b866" font-family="Arial" font-size="18" font-weight="700" letter-spacing="6">DIGITAL DENTISTRY / 03</text><text x="90" y="170" fill="#fff" font-family="Georgia" font-size="52">See the plan before the chair.</text><text x="90" y="215" fill="#c7dce4" font-family="Arial" font-size="18">A visual, technology-forward way to understand your treatment.</text></svg>